# xmcd
#
# Track frame offsets:
#	182
#	13120
#	25107
#	41315
#	54895
#	66982
#	81670
#	96300
#	111342
#	139470
#	154407
#
# Disc length: 2344
#
# Revision: 2
# Processed by: cddbd v1.5.1PL0 Copyright (c) Steve Scherf et al.
# Submitted via: CDWizzard Release:4.35
# Normalized: r1:DSETVAR1
#
DISCID=9809260b
DTITLE=Various Artist - Slow Jams - The 60's Volume 1
DYEAR=1900
DGENRE=
TTITLE0=Percy Sledge - When A Man Loves A Women
TTITLE1=Aaron Neville - Tell It Like It Is
TTITLE2=Eddie Holman - Hey, There Lonely Girl
TTITLE3=James and Bobby Purify - I'm Your Puppet
TTITLE4=Barbara Lewis - Hello Stranger
TTITLE5=Otis Redding - I've Been Loving You Too Long
TTITLE6=Aretha Franklin - Do Right Woman, Do Right Man
TTITLE7=Delfonics - La La Means I Love You
TTITLE8=The Dells - Stay In My Corner
TTITLE9=Originals - Baby I'm For Real
TTITLE10=Barbara Mason - Yes, I'm Ready
EXTD=
EXTT0=
EXTT1=
EXTT2=
EXTT3=
EXTT4=
EXTT5=
EXTT6=
EXTT7=
EXTT8=
EXTT9=
EXTT10=
PLAYORDER=
